<svg xmlns="http://www.w3.org/2000/svg">
  <defs>
    <style>
      .cls-1 {
        fill: #f26625;
        fill-rule: evenodd;
      }
    </style>
  </defs>
  <g id="logo-neg-booky-128w" transform="translate(-128.886 -414.86)">
    <!-- <path id="Path_1057" data-name="Path 1057" class="cls-1" d="M830.338,438.341a3.38,3.38,0,0,0-4.411,1.842L822.91,447.5a.845.845,0,0,1-1.539-.024l-2.992-7.289a3.38,3.38,0,0,0-6.253,2.569l6.027,14.686a2.253,2.253,0,0,1-.008,1.61l-1.895,4.594a3.38,3.38,0,0,0,6.253,2.569l9.677-23.459a3.38,3.38,0,0,0-1.842-4.411" transform="translate(-583.549 -19.845)"/>
    <path id="Path_1058" data-name="Path 1058" class="cls-1" d="M674.474,431.258a1.69,1.69,0,0,1,.019-2.114l4.346-5.416a3.38,3.38,0,0,0-5.272-4.232l-5.785,7.206a1.127,1.127,0,0,1-2-.715V418.24a3.38,3.38,0,0,0-6.761,0V438.8a3.38,3.38,0,0,0,6,2.14h0l3.015-3.756a1.69,1.69,0,0,1,2.6.087l2.933,3.654a3.38,3.38,0,0,0,5.272-4.232l-4.365-5.439" transform="translate(-452.954 0)"/>
    <path id="Path_1059" data-name="Path 1059" class="cls-1" d="M492.993,438.078a11.972,11.972,0,1,0,11.972,11.972,11.972,11.972,0,0,0-11.972-11.972m0,17.183a5.211,5.211,0,1,1,5.211-5.211,5.211,5.211,0,0,1-5.211,5.211" transform="translate(-300.867 -19.838)"/>
    <path id="Path_1060" data-name="Path 1060" class="cls-1" d="M316.925,438.078A11.972,11.972,0,1,0,328.9,450.05a11.972,11.972,0,0,0-11.972-11.972m0,17.183a5.211,5.211,0,1,1,5.211-5.211,5.211,5.211,0,0,1-5.211,5.211" transform="translate(-150.433 -19.838)"/> -->
    <path id="Path_1061" data-name="Path 1061" class="cls-1" d="M140.858,418.24a11.958,11.958,0,0,0-3.812.62,1.126,1.126,0,0,1-1.414-.931,3.38,3.38,0,0,0-6.746.312V438.8a3.38,3.38,0,0,0,5.527,2.611,1.665,1.665,0,0,1,1.029-.349,1.684,1.684,0,0,1,.618.117,11.973,11.973,0,1,0,4.8-22.943m0,17.183a5.211,5.211,0,1,1,5.211-5.211,5.211,5.211,0,0,1-5.211,5.211" transform="translate(0 0)"/>
  </g>
</svg>
